<?xml version="1.0" encoding="utf-8"?>
<!-- Svg Vector Icons : http://www.onlinewebfonts.com/icon -->
<!DOCTYPE svg PUBLIC "-//W3C//DTD SVG 1.1//EN" "http://www.w3.org/Graphics/SVG/1.1/DTD/svg11.dtd">
<svg version="1.1" xmlns="http://www.w3.org/2000/svg" xmlns:xlink="http://www.w3.org/1999/xlink" x="0px" y="0px" viewBox="0 0 1000 1000" enable-background="new 0 0 1000 1000" xml:space="preserve">
<metadata> Svg Vector Icons : http://www.onlinewebfonts.com/icon </metadata>
<g><path d="M876.7,427.7H263l-47.6-182.2H36.9c-14.9,0-26.9,12-26.9,26.9c0,14.8,12,26.9,26.9,26.9h136.9L309.9,820c-25.6,16.4-42.6,45.1-42.6,77.6c0,50.9,41.5,92.3,92.5,92.3c51,0,92.4-41.4,92.4-92.3c0-13.8-3.1-26.8-8.6-38.6h142.1c-5.5,11.8-8.6,24.8-8.6,38.6c0,50.9,41.5,92.3,92.4,92.3c51,0,92.5-41.4,92.5-92.3c0-41.2-27.2-76.2-64.6-88c-4.2-2.7-9.2-4.3-14.5-4.3H361.7l-18.2-69.6h441.2L876.7,427.7L876.7,427.7z M398.5,897.7c0,21.3-17.3,38.6-38.6,38.6c-21.3,0-38.7-17.3-38.7-38.6c0-21.3,17.3-38.6,38.7-38.6C381.1,859.1,398.5,876.4,398.5,897.7L398.5,897.7z M669.6,936.3c-21.3,0-38.7-17.3-38.7-38.6c0-21.3,17.3-38.6,38.7-38.6c21.3,0,38.7,17.3,38.7,38.6C708.2,919,690.9,936.3,669.6,936.3L669.6,936.3z M329.4,682L277,481.4h527.5L744.6,682H329.4L329.4,682z M847.8,197h-49v-49c0-14.8-12-26.9-26.9-26.9S745,133.2,745,148v49h-49.1c-14.9,0-26.9,12-26.9,26.9c0,14.8,12,26.9,26.9,26.9H745v49c0,14.8,12,26.9,26.9,26.9c14.9,0,26.9-12,26.9-26.9v-49h49c14.9,0,26.9-12,26.9-26.9C874.7,209,862.7,197,847.8,197L847.8,197z M620.9,70.1c-87.3,83-90.7,221.4-7.6,308.6c12.2,12.8,25.7,23.6,39.9,32.7l40.4-38.4c-15-8-29-18.4-41.4-31.4c-62.6-65.7-60.1-170.1,5.7-232.6c65.8-62.6,170.3-60,232.9,5.7c62.6,65.7,60.1,170.1-5.7,232.6c-13.2,12.6-28.1,22.4-43.7,29.7l38.5,40.4c15-8.5,29.3-18.8,42.3-31.2c87.3-83,90.7-221.4,7.6-308.6C846.8-9.5,708.2-12.9,620.9,70.1L620.9,70.1L620.9,70.1z"/></g>
</svg>